# xmcd
#
# Track frame offsets:
#	150
#	13342
#	29986
#	49042
#	65406
#	82089
#	99793
#	115402
#	129001
#	139417
#
# Disc length: 2214 seconds
#
# Revision: 2
# Processed by: cddbd v1.5.2PL0 Copyright (c) Steve Scherf et al.
# Submitted via: audiograbber 1.83.01
#
DISCID=8b08a40a
DTITLE=Charlie Robinson - Beautiful Day
DYEAR=2009
DGENRE=Country
TTITLE0=Beautiful Day
TTITLE1=Yellow Blues
TTITLE2=Down Again
TTITLE3=Nothin' Better To Do
TTITLE4=Reconsider
TTITLE5=Feelin' Good
TTITLE6=If The Rain Don't Stop
TTITLE7=Middle Of The Night
TTITLE8=She's So Fine
TTITLE9=Racing In The Street
EXTD=
EXTT0=
EXTT1=
EXTT2=
EXTT3=
EXTT4=
EXTT5=
EXTT6=
EXTT7=
EXTT8=
EXTT9=
PLAYORDER=
